<svg xmlns="http://www.w3.org/2000/svg" xmlns:xlink="http://www.w3.org/1999/xlink" viewBox="0 0 1920 1080"><defs><style>.cls-1{fill:url(#Naamloos_verloop_31);}.cls-2{fill:#f8ef8f;}.cls-3{fill:#885729;}.cls-4{fill:#b17e4f;}.cls-4,.cls-5,.cls-6,.cls-7{stroke:#92643a;stroke-width:5px;}.cls-10,.cls-4,.cls-5,.cls-6,.cls-7,.cls-8,.cls-9{stroke-miterlimit:10;}.cls-5{fill:#b48153;}.cls-6{fill:#be8a58;}.cls-7{fill:#d19966;}.cls-8,.cls-9{fill:#bfd250;stroke:#9b9f48;}.cls-8{stroke-width:2px;}.cls-10,.cls-9{stroke-width:3px;}.cls-10{fill:#2da736;stroke:#1c8c37;}</style><radialGradient id="Naamloos_verloop_31" cx="961.24" cy="540.09" r="778.85" gradientUnits="userSpaceOnUse"><stop offset="0" stop-color="#fcd28e"/><stop offset="0.99" stop-color="#dcae73"/></radialGradient></defs><g id="BG"><rect id="BG-2" data-name="BG" class="cls-1" x="1.24" y="0.09" width="1920" height="1080"/></g><g id="ZON"><circle id="ZON-2" data-name="ZON" class="cls-2" cx="987.79" cy="148.73" r="278.41"/></g><g id="MUD"><path id="Mud-2" data-name="Mud" class="cls-3" d="M305,992.94s75.2-5.8,92.42-35.22c-13.35-5.61-13.93-8.52-13.93-8.52s43.35-29.8,76.06-25.55c-21.09-10.83-16.26-11.22-16.26-11.22S464,898.69,483,903.14c-14.32-14.32-20.9-14.71-20.9-14.71s22.26-18.39,88.64,4.26c-18.19,31.93-73.93,53.42-73.93,53.42l57.87-.39-19.16,17.61,104.9.39L603.73,949.2l79.74-1.35s-47-13.74-49.55-27.1c1.74-8.13-20.13-11-20.13-11l-41.81-13s53-36.19,87.29-43.74c-21.29-7.55-19.93-8.9-19.93-8.9s33.29-22.65,96.77-24.78C723.92,826.69,718.5,829,718.5,829h39.87s42.58-31.94,53-31.55l-12-4.26s16.07-18,61.16-19.35"/><path id="Mud-3" data-name="Mud" class="cls-3" d="M860.56,774.62s24.2-16.26,89.62-28.45L937.6,742.3s65.22-23.23,75.09-24.19c-19.35-2.52-29.61-8.13-43.16-5.62,33.87-22.45,112.65-12.38,112.65-12.38l-23.42-13.55s19.93-4.65,21.09-6.2-7.93-7.16-10.83-7,102-29.23,125-28.65c23.93-9.74,54.64-10,54.64-10l-5.93-5.42s86.19-14.71,119.48-9.55c-4.39-4.64-3.09-4.64-3.09-4.64s38.19,0,42.58,12.9c12.38-11.35,49.29,7,49.29,7l-2.07-5.68,7.23,7,2.32-4.13s40.26,11.87,47,20.13,13.16,6.45,13.16,6.45l-2.58-3.1,19.61,2.33,31.49,10.84-6.46-5.42s66.15,6.19,87.78-2.58v420H1.24v-30.61l150.94-94.46L305,992.94"/><polygon class="cls-3" points="1648.47 1080.85 1921.24 1080.85 1921.24 687.4 1823.66 650.75 1655.4 644.56 1646.05 661.91 1648.47 1080.85"/></g><g id="BERGEN"><path class="cls-4" d="M342.63,237.33s-6.19-21.68,8.52-31.74,69.67-47.23,69.67-47.23h35.62s40.25-21.67,55,0,24.78,38.71,24,51.88,10.84,11.61,10.84,11.61,49.55,32.51,52.65,45.68-6.2,80.51-6.2,80.51l19.36,41.81,24.77,157.93s14.79,53.41,14,63.48c-75.14,0-198.28-24.4-198.28-24.4s-51.06-6.12-99.06-6.72c-5.41-77.26-31.73-154.68-31.73-154.68Z"/><path class="cls-5" d="M564.05,205.59l-41,40.26s5.42,58.06-20.13,81.29-51.87,17.8-74.33,86.71-23.85,169.79-23.85,169.79S474,588.82,506,596s139,17.26,144.85,14.83,86.38,5.3,108.57,5.56c4.65-28.13-7.74-86.45-11.87-93.68s-51.61-15-46.45-26.32,31.48-59.87,1.55-80.52-51.8-37.67-51.8-37.67,14.27-39.23,0-60.39c-8.07-26.84,0-36.65,0-36.65l-63.3-75.61Z"/><path class="cls-6" d="M671.15,610.86S683.53,515,697,501.07s19.48-50.38,19.48-50.38,10.46-26.52,21.81-4.84,16.39,61.93,15.42,69.16c15.55,3.61,21.74,21.16,21.74,57.29v44.13Z"/><path class="cls-6" d="M220.31,582.62l31-217.55,53.58-69.67,17.65-58.07H379s20.9,133.94,24.77,147.1,18.58,55,18.58,55l31.74-24.78s6.2-11.61,13.16,5.42,27.1,136.78,46.46,135.74c10.83,14.46,27.81,43.38,45.55,46.53-73.43-12.72-189.76-28.59-254.3-19.49"/></g><g id="BERG"><path id="BERG-2" data-name="BERG" class="cls-7" d="M790.63,616.43s-1.55-66.9,11-66.71c12.78,4.06,17.23,7.35,17.23,7.35s8.9-8.13,10.45-26.13.58-37.16,10.84-37.35,22.64-6,22.26,15.68-1.94,28.84,1.74,28.45,8.71-5,8.9,10.26-.39,28.26,4.07,29.61S882,613.41,882,613.41,808.63,618.68,790.63,616.43Z"/></g><g id="BERG-3" data-name="BERG"><path id="BERG-4" data-name="BERG" class="cls-7" d="M978.76,601.2s-1-47.61,14.45-49c3.87-21.49,7-54,14.71-52.2s11.35,7.74,14.71,23.23,5.16,27.28,10.32,27.32,10.51,31.72,9.38,39.49C989.6,601.2,978.76,601.2,978.76,601.2Z"/></g><g id="BERGEN-2" data-name="BERGEN"><path id="BERG-5" data-name="BERG" class="cls-4" d="M1273.94,540.09l6.75-124.69,23.75-74.84,23.74-2.58s-8.78-24.78-3.1-33,10.32-28.9,6.71-35.61,38.71-69.16,38.71-69.16,15.48-2.58,26.58,8.26,17.81,20.64,19.36,36.64-.52,47,7.22,43.36,18.58-21.16,25.29-22.19,34.58-14.46,35.61-25.81-1.29-40.26,19.75-35.1,64.38,5.16,64.38,5.16,48.6,52.65,79.78,64.52,108.61,12.9,108.61,12.9,27.36,18.58,34.07,31.49,21.67,54.19,21.67,54.19l16,25.29,26.33,125.42s-358.2-16.39-389.68-13.62-124.14,15.65-124.14,15.65Z"/><path id="BERG-6" data-name="BERG" class="cls-6" d="M1150.11,566.88s23.23-119,37.42-115.87,35.1,20.9,35.1,20.9,13.93-16,21.16-75.35-3.61-84.39,20.39-84.65,49-9.8,51.09,8.78l2.07,18.58s4.13,38.45,3.61,51.09-4.3,35.88,0,35.36,16.73-5.68,17,1.81,4.39,32.51,3.1,52.64.25,46.16.25,46.16S1192.51,556.3,1150.11,566.88Z"/><path class="cls-5" d="M1346.08,525.67s-.14-122.14,8-143.82c0-28.91,16.93-41.81,16.93-41.81s13.42-30.45,15.48-37.68,54.19,0,54.19,0,16-19.61,20.13-19.61h33s10.33-16.51,25.81-17,79.49-5.68,84.65-3.1,39.74,25.81,39.74,25.81,72.26,6.71,78.45,11.87,64.52,42.32,65.55,64-20.65,49-8.78,61.42,55.38,84.13,53,97.55c-42.1-1.86-366.78-12.59-366.78-12.59Z"/></g><g id="GRAS"><path class="cls-8" d="M827.79,1010.75s124.65-4.9,152.77-14.45l-20.64,12.13,20.64-1L963,1020.3l135.74-6.45-22.45-5.55,35.35-5.55s-38.71-12.13-75.1-12.64c16-7.75,91.62-11.36,106.33-9.81-4.39-4.39-23.74-5.68-23.74-5.68l28.64-5.93s-88.26-35.62-197.16-3.36l-78.19,22.49,47.74,1.51S834.24,1002.75,827.79,1010.75Z"/><path class="cls-9" d="M1921.24,687.4l-40.81-9.29,9.29,6.71S1841,676,1835,673.46s-38.19-6.45-38.19-6.45l17.81,9.81-97.81-15.23,13.14,7.35c-1.14-.41-48.67-17.41-83.92-7-19.26,7.06-85.35,1.48-85.35,1.48l6.45,5.42L1535.66,658l-19.61-2.32,2.58,3.09c-2.81,1-9.68-1.8-12.9-6.14l-.07-.08c-7.07-8.87-47.16-20.36-47.16-20.36l-2.32,4.13-7.23-7L1451,635c-31.32-14.48-44.35-11.55-49.29-7-5.71-13.42-42.58-12.9-42.58-12.9s-.58,0,3.1,4.65c-31.06-5.23-119.48,9.54-119.48,9.54l5.93,5.42a170.29,170.29,0,0,0-21.36,1.62c-13.79,1.87-26.57,5.12-33.67,8.38C1151.28,647.94,1069,673.4,1069,673.4s6.68,1.45,10.33,5.5c4.68,3.44-20.58,7.66-20.58,7.66l23.42,13.55c-44-5.61-91.07-1.84-112.65,12.39,3.19-1.36,12.19-1.65,43.16,5.61-26.8,6.29-75.1,24.19-75.1,24.19l12.59,3.87c-61.26,10.74-89.62,28.45-89.62,28.45v-.77c-43,.87-61.16,19.35-61.16,19.35l12,4.26c-12.29.39-53,31.55-53,31.55H718.5s13.45-6.58,17.61-9.68c-17.32,1.26-60.1,2.62-96.77,24.78,3.58,3.77,19.93,8.9,19.93,8.9-42.38,10.65-87,43.84-87,43.84l41.5,12.87c18.68,2.71,20.71,7.16,20.13,11,4,13.55,49.55,27.1,49.55,27.1l-79.38,1.68,16.28,14.19-104.9-.39,19.16-17.61-57.87.39c19.35-6.29,67.25-35,73.93-53.42-59.61-20-83.9-7.94-88.5-4.24,7.89,1.37,20.76,14.69,20.76,14.69-17-5.13-40.1,9.52-40.1,9.52s-.55,2.58,16.68,11c-31.55-4.94-76.06,25.54-76.06,25.54s-.39,2,13.93,8.52C379,987.72,305,993,305,993c-9,.92-87.39-3.1-125.71,0s-137,38.71-137,38.71,65-3.49,43,1.16-84,33.68-84,33.68V584.19C7.47,578,305,582.82,305,582.82l197,11.44c23.33,3.68,46.52,7.68,75,11.2,87.88,10.84,271.75,9.68,271.75,9.68s2.36-.09,6.89-.35c32.18-1.86,173.75-12.5,353.11-62.55,32.83-7.53,62.62-13.72,89.59-18.8,155.4-29.26,217.45-21.74,231.31-22.24,16.26-.58,118.81,4.84,118.81,4.84s252.42,8.26,272.77,11.87Z"/><path class="cls-9" d="M855.65,614.79c-4.53.26-6.89.35-6.89.35S664.89,616.3,577,605.46c-28.5-3.52-51.69-7.52-75-11.2Z"/><path class="cls-9" d="M855.65,614.79c-4.53.26-6.89.35-6.89.35S664.89,616.3,577,605.46c-28.5-3.52-51.69-7.52-75-11.2Z"/><path class="cls-8" d="M1019.27,819s51.62-4.39,76.13-1.81l-18.84,10.33L1185.94,822l-12.6-10.18h84.39L1221.6,801.2l20.64-5.16s-17.8-8-85.16-4.64l6.45-5.42s-63.22-.52-84.64,11.35l4.13-5.93S1019.53,808.94,1019.27,819Z"/></g><g id="BERG-7" data-name="BERG"><polygon id="BERG-8" data-name="BERG" class="cls-7" points="1.24 332.56 30.58 332.56 52.69 380 90.89 399.91 143.27 499.97 151.2 581.16 1.24 584.19 1.24 332.56"/></g><g id="STENEN"><g id="STEEN"><path class="cls-6" d="M206.25,827.68l-77.8,70.84S105.05,975.4,151.2,985s183.57,10.72,183.57,10.72,109.55-7,117.29-17.42,5.81-47.22-36.77-78.58-58-43.74-58-55.35-84-24.78-84-24.78Z"/><path class="cls-6" d="M211,827.11l1.2,20.18s8.26,10.07,8,17.55-6.71,10.84,7.74,28.13,28.65,40.26,66.32,42.07,67.68-3.62,78.49-6.71,42.4-17.39,58.48-14.89c-12.58-17.11-69.61-41.79-73.48-65.58-.49-11.4-19.83-14.38-19.83-14.38l-64.69-13.93Z"/></g><path id="STEEN-2" data-name="STEEN" class="cls-6" d="M477.22,909s30.45-40.26,64.26-5.93,36.13,37.67,36.13,37.67,11.35,11.36-28.13,14.46-72,2.06-75.1-6.2S464,921.21,477.22,909Z"/><g id="STEEN-3" data-name="STEEN"><path class="cls-6" d="M1187.79,649.72l92.9-83.61,63.49-10.33,97.55,24.78s10.32,21.16,23.22,28.9S1522.24,658,1522.24,658l-3.09,35.94-66.59,42s-78.45,9.81-100.12,5.68C1325.12,744.69,1167.15,759.65,1187.79,649.72Z"/><polyline class="cls-6" points="1280.18 566.36 1301.47 638.36 1335.14 649.9 1446.63 667.01 1513.35 649.9"/></g><g id="STEEN-4" data-name="STEEN"><path class="cls-6" d="M316.19,965.49l30.58,43s113-2.71,152.52-1.94c33.67-21.29,32.51-32.13,31.35-43.35s-60.77-50.71-66.19-50.33S420.71,909,420.71,909l-55.36,13.16Z"/><path class="cls-6" d="M322.39,960s39.48,15.15,58.06,16.31,43.18-3.1,43.18-3.1,23-13.94,25.72-18.58,11.23-10.07,11.23-10.07L459,929.88s7.54-9.38,7.45-16.5L420.71,909l-55.36,13.16Z"/></g><path id="STEEN-5" data-name="STEEN" class="cls-6" d="M32.83,961.23S20.45,980.58,53.74,981s85.16-2.31,89.8-4.44,24-42.78-25.16-56.33c-43.74-2.71-44.13-1.55-53.8,8.51S41.74,959.68,32.83,961.23Z"/><path id="STEEN-6" data-name="STEEN" class="cls-6" d="M184.32,993.36s21.42-37.94,35.61-33.55,21.94,6.71,43.36,38.71c-12.91,13.42-31.75,11.1-31.75,11.1S188.19,1016.07,184.32,993.36Z"/><path id="STEEN-7" data-name="STEEN" class="cls-6" d="M1299.15,919s-54.2-61.55-104.52,0-61.94,66.58,0,68.52,132.39-5.81,130.45-16.65S1322.76,949.59,1299.15,919Z"/><g id="STEEN-8" data-name="STEEN"><path id="STEEN-9" data-name="STEEN" class="cls-6" d="M1399.79,710.75l41-29.42,5.81-13.93,73.55-17.5,44.51,8.07,34.84,18.72,12,29.8-6.19,12s-37.94,34.07-94.45,36.39-78.58,3.87-85.55-4.26-28.26-38.32-28.26-38.32Z"/><polyline class="cls-6" points="1397.86 711.91 1453.6 726.62 1481.28 726.62"/></g><g id="STEEN-10" data-name="STEEN"><polyline id="STEEN-11" data-name="STEEN" class="cls-6" points="1479.92 725.59 1504.31 786.49 1553.21 810.24 1648.47 801.46 1740.05 782.36 1758.63 760.69 1771.02 725.59 1752.43 678.62 1641.98 649.9 1621.86 643.01 1539.27 661.07 1519.43 690.65 1477.86 729.85"/><polyline class="cls-6" points="1487.3 744.01 1575.92 764.56 1668.05 754.28 1770.65 726.62"/></g><g id="STEEN-12" data-name="STEEN"><path id="STEEN-13" data-name="STEEN" class="cls-6" d="M1482,816.43s-25.8,39.22-40.77,52.13-81.55,69.54-81.55,69.54l53.16,83.23,124.91,26.84h89.8l130.07-33.55,62.45-74.88,13.42-51.21-12.39-26.42-43.87-29.17-160.52-50.58Z"/><polyline class="cls-6" points="1463.3 939.74 1568.18 956.77 1699.79 930.24 1821.08 862.11"/></g><path id="STEEN-14" data-name="STEEN" class="cls-6" d="M1095.4,712.69S1131,657.46,1159.92,658s64,3.61,53.68,58.32c-53.16,18.06-81,18.06-118.2,0"/><path id="STEEN-15" data-name="STEEN" class="cls-6" d="M1259.79,744s-.52,15.64,32.77,14.35,57.55.26,48.78-19.87S1317.85,672.11,1259.79,744Z"/><g id="STEEN-16" data-name="STEEN"><path id="STEEN-17" data-name="STEEN" class="cls-6" d="M1218.63,999.14s91.35-72,96.39-72.78,49.54-7.35,64.64-6.58,81.68,17.42,89.42,22.46,70.07,56.9,73.55,64.64c-4.26,10.45-34.84,52.65-34.84,52.65l-55.35,15.87-187.36-5.81-40.64-29.81Z"/><polyline class="cls-6" points="1313.47 927.14 1325.12 980.56 1354.09 997.56 1397.86 1013.85 1477.86 1028.56 1544.18 1006.88"/></g></g><g id="STRUIKEN"><path class="cls-10" d="M305,591.22s114.81-3,157.55,6.28,231.32,36.44,386.23,28.63,353.72-66,353.72-66-12.88-10-58.17-11.71-65.42,18.4-73.55,24.48-46.07,5.62-65.42,1.86-61.94,20.07-61.94,20.07-50.35,15.05-85.55,8.36c-16.64-16.3-76.64-18.81-76.64-18.81S742.89,589.76,734,586s-59.22-17.14-80.13-7.53S616.31,581,616.31,581c-29.42-14.21-42.2-2.92-55,6.27s-12.78,4.6-33.29-13.79S427.79,558,422,560.5s-7.74,8.36-11.22-2.51-105.91-17.14-105.91-17.14-98.09-4.2-112.41-.76-30.2,43-30.2,43S299.45,587.44,305,591.22Z"/><path class="cls-10" d="M1210.74,557.71s11-33.59,33-32.33,32.9,7.94,54.19-7.11,31.75-4.95,31.75-4.95,16.25-21.39,46.83-15.54,44.52-13,44.52-13,29.42-15.88,83.23,0c0,0,40.64,4.18,63.48,3.77s26.71,12.12,26.71,12.12,22.84-23,39.48-16.3,14.49,6.68,14.49,6.68,194.93-6.4,220.09,7.15,24.87,27.5,24.87,27.5l-213-8.62-32,2s-153.79-11.4-207.62-3c-58.48,1.6-232.09,42.07-232.09,42.07"/><path class="cls-10" d="M147.92,546.62s17.29,7.72,22.38,19.35,3.56,17.55,3.56,17.55-87.49-1.43-104.52,0-68.1.67-68.1.67v-27.5S99.92,541.59,147.92,546.62Z"/><path class="cls-10" d="M1884.16,509.28s4.6-14.92,37.08-17v35.61l-37.08-2.24Z"/><path class="cls-10" d="M1166,550.59s29.56-18.89,56.78-14.53l10.17,16.65-47,12Z"/><path class="cls-10" d="M738.56,587s29.08,32,18.25,40.12"/><path class="cls-10" d="M416.18,564.73s-6.29,19.83-5.47,27.38"/><line class="cls-10" x1="1594.5" y1="500.71" x2="1594.5" y2="514.98"/></g></svg>